<?xml version="1.0" encoding="utf-8"?>
<!-- Generator: Adobe Illustrator 28.2.0, SVG Export Plug-In . SVG Version: 6.00 Build 0)  -->
<svg version="1.1" id="Layer_1" xmlns="http://www.w3.org/2000/svg" xmlns:xlink="http://www.w3.org/1999/xlink" x="0px" y="0px"
	 viewBox="0 0 256 256" style="enable-background:new 0 0 256 256;" xml:space="preserve">
<style type="text/css">
	.st0{fill:#FFFFFF;}
</style>
<path class="st0" d="M128,29.8V96h10.2c3.2,0,5.8-2.6,5.8-5.8V61.8c0-3.2,2.6-5.8,5.8-5.8H200v40h10.2c3.2,0,5.8-2.6,5.8-5.8V29.8
	c0-3.2-2.6-5.8-5.8-5.8h-4.4c-3.2,0-5.8,2.6-5.8,5.8v4.4c0,3.2-2.6,5.8-5.8,5.8h-44.4c-3.2,0-5.8-2.6-5.8-5.8v-4.4
	c0-3.2-2.6-5.8-5.8-5.8h-4.4C130.6,24,128,26.6,128,29.8z M200,96h-50.2c-3.2,0-5.8,2.6-5.8,5.8v4.4c0,3.2,2.6,5.8,5.8,5.8h44.4
	c3.2,0,5.8-2.6,5.8-5.8L200,96L200,96z M128,96H85.8c-3.2,0-5.8,2.6-5.8,5.8V112h42.2c3.2,0,5.8-2.6,5.8-5.8V96z M80,112H69.8
	c-3.2,0-5.8,2.6-5.8,5.8V152h10.2c3.2,0,5.8-2.6,5.8-5.8V112z M64,152H48v50.2c0,3.2,2.6,5.8,5.8,5.8H64V152z M64,208v10.2
	c0,3.2,2.6,5.8,5.8,5.8H136h10.2c3.2,0,5.8-2.6,5.8-5.8V208v-10.2c0-3.2-2.6-5.8-5.8-5.8H136v10.2c0,3.2-2.6,5.8-5.8,5.8H64z
	 M136,192v-10.2c0-3.2-2.6-5.8-5.8-5.8h-28.4c-3.2,0-5.8,2.6-5.8,5.8v4.4c0,3.2,2.6,5.8,5.8,5.8H136z M48,152V64H37.8
	c-3.2,0-5.8,2.6-5.8,5.8v76.4c0,3.2,2.6,5.8,5.8,5.8L48,152L48,152z M48,64h26.2c3.2,0,5.8-2.6,5.8-5.8v-4.4c0-3.2-2.6-5.8-5.8-5.8
	H53.8c-3.2,0-5.8,2.6-5.8,5.8V64z M184,133.8v52.4c0,3.2,2.6,5.8,5.8,5.8H200v-58.2c0-3.2-2.6-5.8-5.8-5.8h-4.4
	C186.6,128,184,130.6,184,133.8z M200,192v10.2c0,3.2-2.6,5.8-5.8,5.8h-20.4c-3.2,0-5.8,2.6-5.8,5.8v4.4c0,3.2,2.6,5.8,5.8,5.8H208
	h2.2c3.2,0,5.8-2.6,5.8-5.8v-20.4c0-3.2-2.6-5.8-5.8-5.8H200z"/>
</svg>
